<?xml version="1.0" encoding="iso-8859-1"?>
<!-- Generator: Adobe Illustrator 25.2.0, SVG Export Plug-In . SVG Version: 6.00 Build 0)  -->
<svg version="1.1" baseProfile="basic" xmlns="http://www.w3.org/2000/svg" xmlns:xlink="http://www.w3.org/1999/xlink" x="0px"
	 y="0px" viewBox="0 0 100 100" xml:space="preserve">
<g id="Layer_1">
	<path style="opacity:0.35;" d="M95,41.97v18.451c0,1.574-0.38,3.148-1.085,4.559v10.637c0,9.28-7.706,16.823-17.181,16.823H65.641
		c-1.628,1.368-3.723,2.171-5.915,2.171c-4.906,0-8.933-3.853-9.215-8.683H27.349c-6.382,0-11.581-5.405-11.581-12.058V66
		c-4.374-1.194-7.598-0.836-7.598-5.579V41.97c0-4.743,3.224-8.759,7.598-9.953v-3.495c0-6.653,5.199-12.058,11.581-12.058h48.472
		c6.382,0,11.581,5.405,11.581,12.058v3.495C91.776,33.211,95,37.226,95,41.97z"/>
	<path style="fill:#F2F2F2;" d="M92.829,39.799V58.25c0,1.574-0.38,3.148-1.085,4.559v10.637c0,9.28-7.706,16.823-17.181,16.823
		H63.47c-1.628,1.368-3.723,2.171-5.915,2.171c-4.906,0-8.933-3.853-9.215-8.683H25.178c-6.382,0-11.581-5.405-11.581-12.058v-3.495
		C9.224,67.009,6,62.993,6,58.25V39.799c0-4.743,3.224-8.759,7.598-9.953v-3.495c0-6.653,5.199-12.058,11.581-12.058h48.472
		c6.382,0,11.581,5.405,11.581,12.058v3.495C89.606,31.04,92.829,35.056,92.829,39.799z"/>
	<path style="fill:#2785BD;" d="M85.232,36.977v24.095c0,1.14-1.017,2.062-2.288,2.062H15.885c-1.271,0-2.288-0.923-2.288-2.062
		V36.977c0-1.14,1.017-2.062,2.288-2.062h67.059C84.215,34.915,85.232,35.837,85.232,36.977z"/>
	<path style="fill:#70BFFF;" d="M76.549,26.351v42.21H22.28v-42.21c0-1.856,1.302-3.375,2.898-3.375h48.472
		C75.246,22.976,76.549,24.495,76.549,26.351z"/>
	<path style="fill:#70BFFF;" d="M76.549,63.134v8.564c0,1.856-1.302,3.375-2.898,3.375H25.178c-1.595,0-2.898-1.52-2.898-3.375
		v-8.564H76.549z"/>
	<path style="fill:#D9EEFF;" d="M66.044,64.22H32.786c-1.006,0-1.822-0.857-1.822-1.913V37.913c0-1.057,0.816-1.913,1.822-1.913
		h33.258c1.006,0,1.822,0.857,1.822,1.913v24.393C67.866,63.363,67.05,64.22,66.044,64.22z"/>
	<path style="fill:none;stroke:#40396E;stroke-width:3;stroke-linecap:round;stroke-linejoin:round;stroke-miterlimit:10;" d="
		M55.927,53.366c-1.342,1.953-3.763,3.256-6.526,3.256c-2.638,0-4.964-1.188-6.337-2.994"/>
	<circle style="fill:#40396E;" cx="39.646" cy="45.768" r="3.256"/>
	<circle style="fill:#40396E;" cx="59.183" cy="45.768" r="3.256"/>
	<path style="fill:#40396E;" d="M87.402,39.799c0-2.692-2.192-4.884-4.884-4.884h-2.713v-8.564c0-3.658-2.757-6.632-6.154-6.632
		H25.178c-3.397,0-6.154,2.974-6.154,6.632v8.564h-2.713c-2.692,0-4.884,2.192-4.884,4.884V58.25c0,2.692,2.192,4.884,4.884,4.884
		h2.713v8.564c0,3.658,2.757,6.632,6.154,6.632h48.472c3.397,0,6.154-2.974,6.154-6.632v-8.564h2.713
		c0.186,0,0.362-0.035,0.543-0.055v10.366c0,4.412-3.89,8.14-8.493,8.14H60.974c-0.611-1.28-1.906-2.171-3.419-2.171
		c-2.098,0-3.799,1.701-3.799,3.799c0,2.098,1.701,3.799,3.799,3.799c1.513,0,2.808-0.891,3.419-2.171h13.594
		c6.478,0,11.749-5.112,11.749-11.396V61.506c0-0.069-0.012-0.134-0.02-0.201c0.68-0.84,1.106-1.894,1.106-3.055V39.799z
		 M77.634,59.878c-0.599,0-1.085,0.486-1.085,1.085v10.734c0,1.856-1.302,3.375-2.898,3.375H25.178c-1.595,0-2.898-1.52-2.898-3.375
		V60.963c0-0.599-0.486-1.085-1.085-1.085h-4.884c-0.899,0-1.628-0.729-1.628-1.628V39.799c0-0.899,0.729-1.628,1.628-1.628h4.884
		c0.599,0,1.085-0.486,1.085-1.085V26.351c0-1.856,1.302-3.375,2.898-3.375h48.472c1.595,0,2.898,1.519,2.898,3.375v10.734
		c0,0.599,0.486,1.085,1.085,1.085h4.884c0.899,0,1.628,0.729,1.628,1.628V58.25c0,0.899-0.729,1.628-1.628,1.628H77.634z"/>
</g>
<g id="Layer_2">
</g>
<g id="Layer_3">
</g>
<g id="Layer_4">
</g>
</svg>